<svg height='100px' width='100px'  fill="#000000" xmlns="http://www.w3.org/2000/svg" xmlns:xlink="http://www.w3.org/1999/xlink" viewBox="0 0 22 22" version="1.1" x="0px" y="0px"><title>add-book</title><desc>Created with Sketch.</desc><g stroke="none" stroke-width="1" fill="none" fill-rule="evenodd" fill-opacity="1.0"><path d="M12.4968127,0 C13.7516063,0 14.7689605,1.01735416 14.7689605,2.27214776 L13.6328866,2.27214776 C13.6328866,1.64503498 13.1233575,1.13607388 12.4968127,1.13607388 L2.27214776,1.13607388 C1.64503498,1.13607388 1.13607388,1.64503498 1.13607388,2.27214776 L1.13607388,12.4968127 C1.13607388,13.1239255 1.64503498,13.6328866 2.27214776,13.6328866 L2.27214776,14.7689605 C1.01735416,14.7689605 0,13.7516063 0,12.4968127 L0,2.27214776 C0,1.01735416 1.01735416,0 2.27214776,0 L12.4968127,0 Z M15.5683248,3.11368397 C16.8581075,3.11368397 17.9036828,4.15368797 17.9036828,5.44904198 L17.9036828,10.8978939 L15.2902661,10.8978939 C15.0139761,10.8978939 14.7899989,11.129707 14.7899989,11.4067187 L14.7899989,14.2811741 C14.7899989,14.5621903 14.5581858,14.7899989 14.2811741,14.7899989 L11.4067187,14.7899989 C11.1257025,14.7899989 10.8978939,15.0139273 10.8978939,15.2902661 L10.8978939,17.9036828 L5.44904198,17.9036828 C4.15925937,17.9036828 3.11368397,16.8636788 3.11368397,15.5683248 L3.11368397,5.44904198 C3.11368397,4.15925937 4.15368797,3.11368397 5.44904198,3.11368397 L7.00578894,3.11368397 L7.00578894,8.75070359 C7.00578894,9.18380106 7.24690741,9.28710592 7.54741488,8.97828368 L9.34105192,7.13501828 L11.134689,8.97828368 C11.4338207,9.28569214 11.6763149,9.18764267 11.6763149,8.75070359 L11.6763149,3.11368397 L15.5683248,3.11368397 Z M18.056917,13.0484289 L18.056917,16.551053 L21.5595411,16.551053 C21.7746455,16.551053 21.949022,16.7176624 21.949022,16.94391 L21.949022,17.7150381 C21.949022,17.932007 21.7707632,18.107895 21.5595411,18.107895 L18.056917,18.107895 L18.056917,21.6105191 C18.056917,21.8256235 17.8903077,22 17.6640601,22 L16.892932,22 C16.6759631,22 16.500075,21.8217412 16.500075,21.6105191 L16.500075,18.107895 L13.1167948,18.107895 C12.8397832,18.107895 12.6079701,17.8873529 12.6079701,17.6153005 L12.6079701,17.0436476 C12.6079701,16.7675253 12.8357787,16.551053 13.1167948,16.551053 L16.500075,16.551053 L16.500075,13.0484289 C16.500075,12.8333246 16.6666844,12.6589481 16.892932,12.6589481 L17.6640601,12.6589481 C17.881029,12.6589481 18.056917,12.8372069 18.056917,13.0484289 Z" fill="#000000"></path></g></svg>