<svg height='100px' width='100px'  fill="#000000" xmlns="http://www.w3.org/2000/svg" xmlns:xlink="http://www.w3.org/1999/xlink" viewBox="0 0 24 20" version="1.1" x="0px" y="0px"><title>added-book</title><desc>Created with Sketch.</desc><g stroke="none" stroke-width="1" fill="none" fill-rule="evenodd" fill-opacity="1.0"><path d="M12.6285739,0 C13.8965975,0 14.9246782,1.02808072 14.9246782,2.29610434 L13.776626,2.29610434 C13.776626,1.66237954 13.2617246,1.14805217 12.6285739,1.14805217 L2.29610434,1.14805217 C1.66237954,1.14805217 1.14805217,1.66237954 1.14805217,2.29610434 L1.14805217,12.6285739 C1.14805217,13.2622987 1.66237954,13.776626 2.29610434,13.776626 L2.29610434,14.9246782 C1.02808072,14.9246782 0,13.8965975 0,12.6285739 L0,2.29610434 C0,1.02808072 1.02808072,0 2.29610434,0 L12.6285739,0 Z M15.7324708,3.14651336 C17.0358523,3.14651336 18.0924518,4.19748272 18.0924518,5.5064944 L18.0924515,13.5247802 C18.0924515,13.8052376 17.930066,13.873592 17.7396484,13.6871428 L15.8345119,11.8217113 C15.5255643,11.5127636 15.0318893,11.5168171 14.7248998,11.8238067 L11.3034523,15.2452541 C10.9913207,15.5573858 10.9977569,16.0512662 11.3063428,16.3598522 L12.6883251,17.7418344 C12.8819657,17.935475 12.8216343,18.0924518 12.5447175,18.0924518 L5.5064944,18.0924518 C4.20311286,18.0924518 3.14651336,17.0414824 3.14651336,15.7324708 L3.14651336,5.5064944 C3.14651336,4.20311286 4.19748272,3.14651336 5.5064944,3.14651336 L7.07965505,3.14651336 L7.07965505,8.84296735 C7.07965505,9.28063122 7.32331577,9.38502528 7.62699166,9.07294695 L9.43954007,7.21024693 L11.2520885,9.07294695 C11.5543741,9.38359659 11.7994251,9.28451333 11.7994251,8.84296735 L11.7994251,3.14651336 L15.7324708,3.14651336 Z M15.8414011,14.3915304 L17.1410852,15.6912145 C17.3319977,15.882127 17.6492127,15.8779257 17.8474563,15.6796821 L21.9052268,11.6219116 C22.1052833,11.4218551 22.4201277,11.418909 22.6125007,11.611282 L23.8149452,12.8137265 C24.0013521,13.0001334 24.0025983,13.3227177 23.8044031,13.5209129 L17.8473688,19.4779472 C17.6534996,19.6718164 17.3276304,19.6759373 17.129182,19.4774889 L13.9542155,16.3025224 C13.7523495,16.1006564 13.7508421,15.7872507 13.9432151,15.5948777 L15.1456596,14.3924332 C15.3320665,14.2060263 15.6495267,14.199656 15.8414011,14.3915304 Z" fill="#000000"></path></g></svg>