<svg height='100px' width='100px'  fill="#000000" xmlns="http://www.w3.org/2000/svg" xmlns:xlink="http://www.w3.org/1999/xlink" xmlns:sketch="http://www.bohemiancoding.com/sketch/ns" viewBox="0 0 22 22" version="1.1" x="0px" y="0px"><title>collages-collection-album</title><desc>Created with Sketch.</desc><g stroke="none" stroke-width="1" fill="none" fill-rule="evenodd" sketch:type="MSPage"><g sketch:type="MSArtboardGroup" transform="translate(-22.000000, -285.000000)" fill="#000000"><path d="M41.9996619,300.012682 L42.3314723,300.059315 L44.0015495,288.176098 L28.1572604,285.949329 L27.7279091,289.004322 L28.7411122,289.004322 L29.0117309,287.07877 L42.8754839,289.027193 L41.9996619,295.25899 L41.9996619,300.012682 L41.9996619,300.012682 Z M23.9996619,293.549452 L22,293.7244 L23.0458689,305.678736 L38.9849841,304.284244 L38.8730054,303.004322 L37.8691856,303.004322 L37.9016336,303.375205 L23.9549079,304.595385 L23.0833504,294.633438 L23.9996619,294.553272 L23.9996619,293.549452 L23.9996619,293.549452 Z M24.9996619,290.004322 L40.9996619,290.004322 L40.9996619,302.004322 L24.9996619,302.004322 L24.9996619,290.004322 Z M25.9996619,291.004322 L39.9996619,291.004322 L39.9996619,301.004322 L25.9996619,301.004322 L25.9996619,291.004322 Z" sketch:type="MSShapeGroup"></path></g></g></svg>