<svg height='100px' width='100px'  fill="#000000" xmlns="http://www.w3.org/2000/svg" xmlns:xlink="http://www.w3.org/1999/xlink" xml:space="preserve" version="1.1" style="shape-rendering:geometricPrecision;text-rendering:geometricPrecision;image-rendering:optimizeQuality;" viewBox="0 0 8467 8467" x="0px" y="0px" fill-rule="evenodd" clip-rule="evenodd"><defs><style type="text/css">
   
    .fil0 {fill:#000000}
   
  </style></defs><g><path class="fil0" d="M2032 5697l2024 1582 -537 -3678 -2206 -1368 719 3464zm2207 1645l2949 -1534 -150 -3487 -3345 1289 546 3732zm-2373 -1581l-759 -3685c-8,-47 15,-87 55,-103l3424 -1067c16,0 39,0 63,8l2507 1210c24,16 47,48 47,72l159 3661c0,31 -16,63 -48,79l-3076 1610c-51,23 -99,19 -143,-20 -146,-113 -2213,-1698 -2229,-1765z"></path></g></svg>