<svg height='100px' width='100px'  fill="#000000" xmlns="http://www.w3.org/2000/svg" xmlns:xlink="http://www.w3.org/1999/xlink" xmlns:serif="http://www.serif.com/" viewBox="0 0 101 101" version="1.1" xml:space="preserve" style="" x="0px" y="0px" fill-rule="evenodd" clip-rule="evenodd" stroke-linejoin="round" stroke-miterlimit="2"><rect serif:id="Page 51" x="0.5" y="0.5" width="100" height="100" style="" fill="none"></rect><path d="M25.82,85.371l-0.131,-0.037c-0.076,-0.023 -0.153,-0.047 -0.229,-0.073l-0.166,-0.058l-0.041,-0.015c-0.232,-0.089 -0.467,-0.19 -0.676,-0.294l-0.095,-0.048c-0.056,-0.029 -0.098,-0.051 -0.172,-0.092c-0.05,-0.027 -0.112,-0.063 -0.112,-0.063c-0.049,-0.028 -0.111,-0.065 -0.111,-0.065c-0.048,-0.029 -0.109,-0.067 -0.109,-0.067l-0.037,-0.023c-0.048,-0.031 -0.108,-0.07 -0.108,-0.07c-0.068,-0.045 -0.068,-0.045 -0.088,-0.059c0,0 -0.075,-0.051 -0.141,-0.098l-0.121,-0.089c-0.026,-0.019 -0.05,-0.037 -0.05,-0.037c-0.102,-0.078 -0.203,-0.159 -0.301,-0.242c0,0 -0.11,-0.094 -0.207,-0.184l-0.125,-0.117c-0.117,-0.114 -0.231,-0.231 -0.339,-0.351l-0.015,-0.016c-0.067,-0.074 -0.132,-0.15 -0.195,-0.227l-0.028,-0.034c0,0 -0.048,-0.058 -0.081,-0.101c-0.057,-0.072 -0.112,-0.145 -0.166,-0.22c0,0 -0.114,-0.158 -0.195,-0.283c-0.07,-0.107 -0.138,-0.217 -0.202,-0.328c0,0 -0.087,-0.152 -0.156,-0.283c0,0 -0.048,-0.094 -0.086,-0.173c-0.01,-0.02 -0.01,-0.02 -0.02,-0.04c-0.031,-0.065 -0.06,-0.129 -0.089,-0.195l-0.009,-0.019c-0.093,-0.213 -0.176,-0.432 -0.248,-0.652c-0.006,-0.018 -0.008,-0.025 -0.014,-0.044c-0.084,-0.265 -0.152,-0.535 -0.205,-0.808c0,0 -0.06,-0.332 -0.086,-0.576c-0.027,-0.25 -0.04,-0.502 -0.041,-0.75l0,-65.945c0.001,-0.426 0.039,-0.847 0.118,-1.278c0,0 0.036,-0.192 0.074,-0.351c0.039,-0.163 0.084,-0.324 0.134,-0.485c0,0 0.022,-0.07 0.04,-0.124c0.092,-0.275 0.2,-0.543 0.326,-0.806l0.009,-0.019c0.025,-0.052 0.051,-0.103 0.077,-0.155l0.02,-0.039c0,0 0.04,-0.075 0.071,-0.133c0.041,-0.075 0.084,-0.15 0.128,-0.224l0.022,-0.037c0,0 0.037,-0.061 0.068,-0.109c0.042,-0.067 0.084,-0.133 0.129,-0.198l0.072,-0.106c0.024,-0.033 0.05,-0.07 0.05,-0.07c0.075,-0.103 0.152,-0.205 0.232,-0.305l0.028,-0.034l0.028,-0.034c0,0 0.045,-0.054 0.082,-0.097c0.174,-0.204 0.358,-0.396 0.559,-0.584l0.033,-0.029c0,0 0.062,-0.058 0.111,-0.1c0.095,-0.085 0.193,-0.167 0.293,-0.246c0,0 0.046,-0.035 0.084,-0.065c0.018,-0.014 0.018,-0.014 0.036,-0.028c0.051,-0.038 0.119,-0.088 0.119,-0.088l0.036,-0.025c0.053,-0.038 0.122,-0.086 0.122,-0.086c0.148,-0.1 0.299,-0.196 0.453,-0.285c0,0 0.085,-0.049 0.15,-0.085c0.049,-0.027 0.084,-0.046 0.153,-0.081c0.036,-0.019 0.076,-0.039 0.076,-0.039l0.039,-0.019c0.037,-0.018 0.076,-0.037 0.076,-0.037c0.053,-0.025 0.119,-0.056 0.119,-0.056c0.059,-0.026 0.119,-0.053 0.178,-0.078l0.099,-0.041c0.068,-0.027 0.136,-0.054 0.205,-0.079l0.08,-0.03c0.062,-0.022 0.145,-0.049 0.145,-0.049c0.027,-0.009 0.055,-0.018 0.083,-0.027c0.021,-0.007 0.021,-0.007 0.044,-0.014c0.076,-0.024 0.153,-0.046 0.231,-0.067l0.106,-0.029c0.05,-0.012 0.099,-0.025 0.149,-0.036c0.021,-0.005 0.022,-0.006 0.045,-0.011c0.066,-0.015 0.151,-0.033 0.151,-0.033l0.043,-0.008c0.094,-0.018 0.189,-0.035 0.284,-0.05l0.133,-0.02c0.104,-0.014 0.208,-0.026 0.312,-0.036c0,0 0.238,-0.02 0.432,-0.026c0.062,-0.002 0.123,-0.004 0.185,-0.004l0.042,0l35.657,0c0.014,0 0.028,0 0.041,0c0,0 0.111,0.001 0.186,0.004c0.255,0.008 0.511,0.029 0.765,0.065c0,0 0.104,0.015 0.176,0.027c0.081,0.013 0.161,0.028 0.241,0.044c0,0 0.085,0.018 0.15,0.032c0.136,0.03 0.271,0.065 0.405,0.103c0,0 0.199,0.06 0.314,0.099l0.166,0.058l0.041,0.015c0.031,0.012 0.06,0.023 0.06,0.023c0.141,0.054 0.282,0.113 0.42,0.177c0,0 0.137,0.063 0.272,0.132l0.095,0.049c0.064,0.034 0.127,0.069 0.19,0.105c0,0 0.151,0.087 0.276,0.166l0.019,0.012l0.052,0.033l0.037,0.024c0.047,0.032 0.106,0.072 0.106,0.072c0.053,0.036 0.123,0.086 0.123,0.086l0.036,0.025c0.08,0.059 0.159,0.118 0.237,0.18c0,0 0.118,0.094 0.215,0.177l0.032,0.028c0,0 0.12,0.105 0.206,0.185c0.03,0.028 0.062,0.059 0.062,0.059c0.01,0.009 0.019,0.018 0.029,0.028c0.017,0.016 0.018,0.017 0.034,0.033l0.028,0.028c0.034,0.034 0.075,0.075 0.075,0.075c0.039,0.041 0.079,0.082 0.118,0.124c0,0 0.118,0.129 0.199,0.223c0.031,0.037 0.068,0.081 0.068,0.081c0.032,0.038 0.069,0.084 0.069,0.084l0.027,0.033c0.065,0.084 0.13,0.168 0.193,0.255l0.063,0.087c0.023,0.034 0.048,0.071 0.048,0.071l0.036,0.053c0.028,0.041 0.06,0.09 0.06,0.09l0.033,0.052c0.092,0.145 0.18,0.293 0.261,0.445c0,0 0.076,0.14 0.138,0.269l0.056,0.117c0.017,0.038 0.036,0.079 0.036,0.079c0.013,0.031 0.026,0.058 0.026,0.058c0.02,0.047 0.04,0.093 0.059,0.14c0.009,0.021 0.009,0.021 0.017,0.042c0.027,0.067 0.054,0.135 0.079,0.202l0.007,0.02l0.022,0.061c0.034,0.096 0.066,0.193 0.096,0.291l0.032,0.106l0.019,0.069l0.046,0.012c0,0 0.199,0.059 0.314,0.098l0.166,0.059l0.041,0.015c0.031,0.012 0.059,0.022 0.059,0.022c0.142,0.055 0.283,0.114 0.421,0.177c0,0 0.137,0.063 0.272,0.132l0.094,0.05c0.064,0.034 0.128,0.069 0.19,0.104c0,0 0.152,0.087 0.277,0.167l0.018,0.011l0.053,0.034l0.036,0.024c0.048,0.031 0.107,0.071 0.107,0.071c0.053,0.037 0.123,0.086 0.123,0.086l0.035,0.026c0.08,0.059 0.16,0.118 0.237,0.18c0,0 0.118,0.093 0.216,0.177l0.032,0.027c0,0 0.119,0.105 0.205,0.186c0.03,0.028 0.063,0.058 0.063,0.058c0.009,0.01 0.019,0.019 0.028,0.028c0.017,0.017 0.019,0.018 0.035,0.034l0.028,0.028c0.034,0.034 0.074,0.075 0.074,0.075c0.04,0.04 0.08,0.082 0.118,0.124c0,0 0.119,0.128 0.2,0.222c0.031,0.037 0.068,0.081 0.068,0.081c0.031,0.039 0.069,0.085 0.069,0.085l0.026,0.033c0.066,0.083 0.131,0.168 0.193,0.254l0.063,0.088c0.024,0.034 0.049,0.071 0.049,0.071l0.036,0.053c0.027,0.041 0.059,0.09 0.059,0.09l0.034,0.052c0.092,0.145 0.179,0.293 0.261,0.444c0,0 0.075,0.141 0.138,0.269l0.056,0.118c0.017,0.037 0.035,0.078 0.035,0.078c0.014,0.031 0.026,0.059 0.026,0.059c0.021,0.046 0.041,0.093 0.06,0.14c0.009,0.021 0.008,0.021 0.017,0.042c0.027,0.067 0.054,0.135 0.078,0.202l0.007,0.02l0.022,0.06c0.035,0.097 0.067,0.194 0.097,0.292l0.032,0.105l0.019,0.069l0.045,0.013c0,0 0.199,0.059 0.315,0.098l0.166,0.058l0.041,0.015c0.03,0.012 0.059,0.023 0.059,0.023c0.142,0.055 0.282,0.113 0.421,0.177c0,0 0.137,0.063 0.271,0.132l0.095,0.049c0.064,0.034 0.127,0.069 0.19,0.105c0,0 0.152,0.087 0.276,0.166l0.019,0.012l0.052,0.034l0.037,0.024c0.047,0.031 0.107,0.071 0.107,0.071c0.053,0.037 0.122,0.086 0.122,0.086l0.036,0.026c0.08,0.058 0.159,0.118 0.237,0.179c0,0 0.118,0.094 0.216,0.178l0.031,0.027c0,0 0.12,0.105 0.206,0.185c0.03,0.028 0.062,0.059 0.062,0.059c0.01,0.009 0.019,0.019 0.029,0.028c0.017,0.016 0.018,0.017 0.034,0.033l0.029,0.028c0.034,0.034 0.074,0.075 0.074,0.075c0.04,0.041 0.079,0.082 0.118,0.124c0,0 0.119,0.129 0.199,0.223c0.032,0.037 0.068,0.081 0.068,0.081c0.032,0.038 0.07,0.085 0.07,0.085l0.026,0.032c0.066,0.084 0.131,0.169 0.193,0.255l0.063,0.088c0.023,0.033 0.049,0.07 0.049,0.07l0.036,0.053c0.027,0.041 0.059,0.09 0.059,0.09l0.033,0.052c0.092,0.145 0.18,0.294 0.262,0.445c0,0 0.075,0.14 0.137,0.269l0.056,0.117c0.017,0.038 0.036,0.079 0.036,0.079c0.014,0.031 0.026,0.059 0.026,0.059c0.02,0.046 0.04,0.093 0.059,0.14c0.009,0.02 0.009,0.02 0.018,0.041c0.027,0.068 0.053,0.135 0.078,0.203l0.007,0.019l0.022,0.061c0.034,0.096 0.066,0.194 0.097,0.292l0.031,0.105c0.021,0.073 0.048,0.17 0.048,0.17l0.01,0.042c0.017,0.064 0.032,0.128 0.047,0.193c0.005,0.022 0.005,0.022 0.01,0.044c0.019,0.086 0.036,0.172 0.052,0.259c0,0 0.017,0.092 0.03,0.178c0.01,0.066 0.012,0.079 0.016,0.109c0.008,0.052 0.015,0.113 0.015,0.113l0.005,0.043c0.007,0.06 0.014,0.12 0.019,0.181l0.008,0.089c0.013,0.173 0.021,0.347 0.022,0.522l0,0.022l0,65.951l0,0.044c-0.002,0.182 -0.01,0.363 -0.026,0.544l-0.004,0.046c0,0 -0.007,0.078 -0.016,0.156l-0.005,0.046c0,0 -0.017,0.137 -0.034,0.243c-0.01,0.068 -0.026,0.154 -0.026,0.154c-0.033,0.182 -0.071,0.363 -0.118,0.541c0,0 -0.024,0.089 -0.046,0.168c0,0 -0.026,0.09 -0.051,0.169l-0.054,0.166c-0.022,0.063 -0.052,0.145 -0.052,0.145l-0.015,0.041c-0.011,0.031 -0.022,0.059 -0.022,0.059c-0.055,0.142 -0.114,0.283 -0.177,0.421l-0.056,0.119c-0.025,0.051 -0.05,0.102 -0.076,0.153l-0.01,0.019c-0.047,0.09 -0.094,0.178 -0.144,0.266l-0.076,0.129c-0.045,0.076 -0.088,0.144 -0.148,0.236l-0.047,0.072c-0.019,0.028 -0.036,0.053 -0.036,0.053c-0.042,0.06 -0.099,0.141 -0.099,0.141c-0.079,0.109 -0.161,0.217 -0.246,0.322c0,0 -0.078,0.095 -0.151,0.18l-0.013,0.015c-0.095,0.108 -0.192,0.213 -0.293,0.316l-0.027,0.028c-0.035,0.034 -0.075,0.074 -0.075,0.074c-0.077,0.075 -0.155,0.148 -0.235,0.219c0,0 -0.065,0.058 -0.112,0.099c-0.049,0.042 -0.099,0.083 -0.149,0.123l-0.033,0.027c0,0 -0.141,0.112 -0.271,0.207c0,0 -0.073,0.053 -0.14,0.099l-0.072,0.048c-0.041,0.027 -0.09,0.06 -0.09,0.06c-0.101,0.065 -0.204,0.129 -0.309,0.189c0,0 -0.094,0.055 -0.187,0.105c0,0 -0.212,0.112 -0.366,0.184l-0.099,0.045c-0.03,0.014 -0.058,0.026 -0.058,0.026c-0.127,0.056 -0.256,0.108 -0.385,0.155l-0.08,0.03c-0.062,0.022 -0.145,0.049 -0.145,0.049c-0.071,0.024 -0.168,0.054 -0.168,0.054c-0.041,0.012 -0.084,0.025 -0.084,0.025l-0.042,0.012c-0.057,0.016 -0.129,0.035 -0.129,0.035l-0.041,0.011c-0.165,0.041 -0.33,0.078 -0.497,0.109c0,0 -0.158,0.028 -0.287,0.046c-0.052,0.007 -0.112,0.015 -0.112,0.015l-0.043,0.005c-0.061,0.007 -0.121,0.013 -0.181,0.019l-0.089,0.008c-0.174,0.013 -0.348,0.021 -0.523,0.022l-0.022,0l-35.701,0l-0.044,0c-0.181,-0.003 -0.363,-0.011 -0.544,-0.026l-0.046,-0.004c0,0 -0.079,-0.007 -0.156,-0.016l-0.046,-0.006c0,0 -0.075,-0.009 -0.134,-0.017c-0.08,-0.011 -0.16,-0.024 -0.24,-0.038c0,0 -0.102,-0.018 -0.177,-0.033c-0.023,-0.005 -0.023,-0.005 -0.045,-0.009c-0.114,-0.024 -0.228,-0.051 -0.342,-0.08l-0.044,-0.012l-0.106,-0.029l-0.041,-0.012c-0.098,-0.029 -0.195,-0.059 -0.291,-0.092l-0.166,-0.058l-0.041,-0.015c-0.23,-0.087 -0.456,-0.184 -0.676,-0.293l-0.096,-0.049c-0.056,-0.029 -0.098,-0.051 -0.172,-0.092c-0.05,-0.027 -0.112,-0.063 -0.112,-0.063c-0.049,-0.028 -0.111,-0.065 -0.111,-0.065c-0.07,-0.042 -0.07,-0.042 -0.09,-0.055l-0.038,-0.023l-0.126,-0.081c-0.068,-0.045 -0.068,-0.046 -0.088,-0.06c0,0 -0.075,-0.05 -0.141,-0.098l-0.121,-0.088c-0.026,-0.02 -0.05,-0.038 -0.05,-0.038c-0.102,-0.078 -0.202,-0.158 -0.301,-0.242c0,0 -0.11,-0.094 -0.207,-0.184l-0.125,-0.117c-0.117,-0.113 -0.23,-0.231 -0.339,-0.351l-0.015,-0.016c-0.066,-0.074 -0.131,-0.15 -0.195,-0.226l-0.028,-0.034c0,0 -0.047,-0.059 -0.081,-0.102c-0.056,-0.072 -0.112,-0.145 -0.166,-0.22c0,0 -0.114,-0.158 -0.195,-0.283c-0.07,-0.107 -0.137,-0.217 -0.202,-0.327c0,0 -0.074,-0.129 -0.135,-0.244c-0.077,-0.147 -0.149,-0.296 -0.216,-0.447l-0.008,-0.019c-0.093,-0.214 -0.177,-0.433 -0.249,-0.653c-0.005,-0.018 -0.008,-0.025 -0.013,-0.043c-0.025,-0.078 -0.048,-0.156 -0.07,-0.235c0,0 -0.003,-0.01 0,0l-0.027,-0.008l-0.042,-0.012c-0.098,-0.029 -0.195,-0.059 -0.291,-0.091l-0.166,-0.059l-0.041,-0.015c-0.23,-0.087 -0.456,-0.184 -0.676,-0.293l-0.095,-0.048c-0.057,-0.03 -0.098,-0.051 -0.173,-0.092c-0.049,-0.028 -0.111,-0.063 -0.111,-0.063c-0.05,-0.029 -0.111,-0.065 -0.111,-0.065c-0.07,-0.042 -0.071,-0.043 -0.091,-0.056l-0.037,-0.023l-0.126,-0.081c-0.069,-0.045 -0.069,-0.046 -0.089,-0.059c0,0 -0.075,-0.051 -0.141,-0.098l-0.121,-0.089c-0.025,-0.019 -0.049,-0.037 -0.049,-0.037c-0.103,-0.078 -0.203,-0.159 -0.301,-0.243c0,0 -0.11,-0.094 -0.208,-0.183l-0.125,-0.118c-0.116,-0.113 -0.23,-0.23 -0.339,-0.35l-0.015,-0.017c-0.066,-0.074 -0.131,-0.149 -0.195,-0.226l-0.027,-0.034c0,0 -0.048,-0.059 -0.081,-0.101c-0.057,-0.072 -0.112,-0.146 -0.166,-0.22c0,0 -0.114,-0.159 -0.195,-0.283c-0.071,-0.108 -0.138,-0.217 -0.202,-0.328c0,0 -0.074,-0.129 -0.135,-0.244c-0.078,-0.146 -0.15,-0.296 -0.217,-0.447l-0.008,-0.019c-0.093,-0.214 -0.177,-0.433 -0.248,-0.653c-0.006,-0.018 -0.008,-0.025 -0.014,-0.043c-0.025,-0.078 -0.048,-0.157 -0.07,-0.236l0,0Zm49.608,-67.224c-0.076,-0.038 -0.153,-0.074 -0.231,-0.109c-0.042,-0.018 -0.062,-0.026 -0.092,-0.038c-0.101,-0.042 -0.205,-0.081 -0.307,-0.115c0,0 -0.102,-0.033 -0.171,-0.054c0,0 -0.155,-0.044 -0.259,-0.068c-0.068,-0.016 -0.162,-0.035 -0.162,-0.035c-0.065,-0.012 -0.13,-0.024 -0.195,-0.034l-0.09,-0.013c-0.208,-0.028 -0.419,-0.044 -0.629,-0.045l-0.036,0l-35.647,0c-0.229,0.001 -0.457,0.015 -0.682,0.047c0,0 -0.092,0.013 -0.181,0.029l-0.087,0.016c-0.045,0.009 -0.089,0.018 -0.134,0.028c-0.043,0.01 -0.052,0.013 -0.073,0.018c-0.067,0.016 -0.122,0.031 -0.189,0.05c0,0 -0.081,0.024 -0.143,0.044c0,0 -0.156,0.052 -0.25,0.088c-0.09,0.034 -0.177,0.071 -0.26,0.108c0,0 -0.139,0.064 -0.247,0.121c-0.212,0.111 -0.416,0.237 -0.609,0.379l-0.013,0.009c-0.113,0.083 -0.223,0.171 -0.328,0.264c0,0 -0.104,0.091 -0.191,0.176c-0.439,0.43 -0.803,0.951 -1.053,1.517l-0.046,0.108c-0.079,0.192 -0.145,0.389 -0.199,0.59l-0.004,0.015c-0.028,0.106 -0.052,0.214 -0.073,0.323c0,0 -0.04,0.215 -0.059,0.389c0,0 -0.007,0.069 -0.011,0.122c-0.005,0.055 -0.006,0.074 -0.008,0.108c-0.005,0.089 -0.008,0.178 -0.009,0.266l0,0.014l0,65.935c0.003,0.494 0.082,0.99 0.223,1.44c0,0 0.056,0.176 0.113,0.32c0.054,0.138 0.116,0.274 0.185,0.407c0.24,0.475 0.56,0.91 0.93,1.274c0.125,0.123 0.257,0.239 0.393,0.347c0,0 0.032,0.025 0.059,0.045c0.03,0.023 0.033,0.026 0.044,0.034c0.024,0.018 0.047,0.035 0.071,0.052c0.04,0.029 0.081,0.057 0.122,0.085c0,0 0.093,0.062 0.171,0.11c0,0 0.124,0.076 0.225,0.131c0.091,0.049 0.184,0.095 0.278,0.139l0.012,0.006c0.318,0.145 0.656,0.257 0.985,0.329c0,0 0.169,0.035 0.28,0.052c0.056,0.009 0.111,0.017 0.167,0.023l0.153,0.016c0.039,0.004 0.063,0.006 0.122,0.01c0.094,0.005 0.188,0.009 0.283,0.009l0.016,0l35.681,0c0.146,-0.001 0.292,-0.007 0.438,-0.02l0.152,-0.017c0.063,-0.008 0.151,-0.021 0.151,-0.021c0.044,-0.007 0.104,-0.017 0.104,-0.017c0.05,-0.009 0.1,-0.019 0.15,-0.03c0,0 0.059,-0.012 0.102,-0.022c0.056,-0.013 0.131,-0.033 0.131,-0.033c0.048,-0.013 0.114,-0.031 0.114,-0.031c0.067,-0.02 0.134,-0.041 0.2,-0.063c0,0 0.108,-0.038 0.181,-0.066c0.027,-0.01 0.054,-0.021 0.081,-0.032c0.013,-0.005 0.014,-0.005 0.026,-0.01c0.028,-0.012 0.056,-0.024 0.084,-0.036c0.044,-0.019 0.063,-0.028 0.093,-0.042c0.045,-0.02 0.063,-0.029 0.092,-0.043c0.045,-0.022 0.106,-0.053 0.106,-0.053c0.122,-0.063 0.24,-0.131 0.357,-0.204c0,0 0.048,-0.031 0.084,-0.054c0.27,-0.177 0.528,-0.388 0.757,-0.615c0.057,-0.057 0.062,-0.063 0.081,-0.083c0.193,-0.201 0.368,-0.42 0.522,-0.647c0,0 0.044,-0.065 0.079,-0.12c0.052,-0.083 0.102,-0.167 0.149,-0.252c0,0 0.036,-0.067 0.061,-0.115c0.03,-0.058 0.058,-0.116 0.086,-0.174l0.03,-0.066c0.025,-0.057 0.058,-0.135 0.058,-0.135c0.017,-0.042 0.038,-0.096 0.038,-0.096c0.027,-0.07 0.052,-0.14 0.076,-0.21c0,0 0.03,-0.092 0.053,-0.171c0,0 0.039,-0.136 0.065,-0.244c0.011,-0.043 0.023,-0.102 0.023,-0.102c0.03,-0.143 0.055,-0.288 0.073,-0.434l0.016,-0.152c0.003,-0.04 0.005,-0.063 0.009,-0.123c0.006,-0.094 0.009,-0.188 0.01,-0.282l0,-0.017l0,-65.929c-0.001,-0.146 -0.007,-0.293 -0.021,-0.438l-0.016,-0.152c-0.011,-0.082 -0.023,-0.162 -0.037,-0.243c0,0 -0.012,-0.067 -0.021,-0.116c-0.018,-0.089 -0.039,-0.177 -0.062,-0.264c0,0 -0.016,-0.061 -0.032,-0.117c0,0 -0.033,-0.116 -0.066,-0.211c-0.02,-0.06 -0.049,-0.14 -0.049,-0.14c-0.011,-0.027 -0.021,-0.055 -0.032,-0.082c-0.058,-0.146 -0.123,-0.29 -0.194,-0.43c0,0 -0.091,-0.174 -0.179,-0.318c-0.051,-0.083 -0.104,-0.165 -0.16,-0.245c0,0 -0.11,-0.152 -0.174,-0.234c-0.036,-0.046 -0.073,-0.091 -0.111,-0.135c0,0 -0.086,-0.1 -0.165,-0.185c-0.053,-0.056 -0.107,-0.111 -0.163,-0.164c0,0 -0.094,-0.09 -0.172,-0.158c-0.055,-0.049 -0.111,-0.095 -0.168,-0.141c0,0 -0.118,-0.093 -0.22,-0.166l-0.013,-0.01c-0.159,-0.112 -0.324,-0.214 -0.496,-0.306c-0.041,-0.023 -0.052,-0.028 -0.076,-0.041l-0.035,-0.017l-0.015,-0.008Zm-7.104,-5.444l-35.648,0c-0.23,0.001 -0.457,0.015 -0.681,0.047c0,0 -0.092,0.013 -0.181,0.029l-0.088,0.017c-0.045,0.009 -0.089,0.018 -0.133,0.028c-0.043,0.01 -0.052,0.012 -0.073,0.017c-0.067,0.016 -0.123,0.031 -0.19,0.05c0,0 -0.08,0.024 -0.142,0.044c0,0 -0.156,0.052 -0.251,0.088c-0.089,0.035 -0.176,0.072 -0.26,0.109c0,0 -0.139,0.064 -0.247,0.12c-0.211,0.111 -0.415,0.238 -0.609,0.379l-0.013,0.01c-0.113,0.083 -0.222,0.171 -0.328,0.263c0,0 -0.104,0.092 -0.19,0.176c-0.439,0.431 -0.804,0.952 -1.053,1.517l-0.046,0.108c-0.079,0.192 -0.146,0.39 -0.2,0.59l-0.004,0.015c-0.028,0.107 -0.052,0.214 -0.073,0.323c0,0 -0.039,0.215 -0.058,0.389c0,0 -0.007,0.07 -0.012,0.122c-0.004,0.056 -0.005,0.074 -0.007,0.109c-0.006,0.088 -0.008,0.177 -0.009,0.265l0,0.015l0,65.934c0.002,0.484 0.074,0.969 0.222,1.441c0,0 0.057,0.175 0.113,0.32c0.055,0.138 0.117,0.275 0.185,0.407c0.24,0.474 0.56,0.909 0.93,1.273c0.126,0.124 0.257,0.239 0.394,0.347c0,0 0.031,0.025 0.058,0.046c0.03,0.023 0.033,0.025 0.045,0.034c0.023,0.017 0.047,0.034 0.071,0.052c0.04,0.028 0.08,0.056 0.121,0.084c0,0 0.094,0.063 0.172,0.111c0,0 0.124,0.075 0.225,0.13l0.126,0.066l0,-65.318c0.002,-0.426 0.039,-0.847 0.118,-1.278c0,0 0.037,-0.192 0.074,-0.35c0.039,-0.163 0.084,-0.325 0.134,-0.486c0,0 0.022,-0.069 0.04,-0.124c0.092,-0.275 0.2,-0.542 0.326,-0.806l0.009,-0.018c0.025,-0.052 0.051,-0.104 0.077,-0.156l0.02,-0.039c0,0 0.04,-0.075 0.071,-0.132c0.041,-0.076 0.084,-0.15 0.128,-0.224l0.023,-0.038c0,0 0.037,-0.061 0.067,-0.109c0.042,-0.067 0.085,-0.133 0.129,-0.198l0.072,-0.105c0.024,-0.034 0.05,-0.071 0.05,-0.071c0.075,-0.103 0.153,-0.205 0.233,-0.304l0.027,-0.034l0.028,-0.034c0,0 0.045,-0.055 0.082,-0.098c0.174,-0.204 0.359,-0.396 0.56,-0.583l0.032,-0.03c0,0 0.062,-0.057 0.111,-0.1c0.096,-0.085 0.194,-0.166 0.294,-0.246c0,0 0.045,-0.035 0.083,-0.065c0.018,-0.014 0.018,-0.014 0.037,-0.027c0.05,-0.039 0.118,-0.088 0.118,-0.088l0.036,-0.026c0.053,-0.038 0.123,-0.086 0.123,-0.086c0.147,-0.1 0.298,-0.196 0.452,-0.285c0,0 0.085,-0.049 0.15,-0.085c0.049,-0.027 0.084,-0.046 0.153,-0.081c0.037,-0.019 0.076,-0.039 0.076,-0.039l0.039,-0.019c0.037,-0.018 0.077,-0.037 0.077,-0.037c0.052,-0.025 0.118,-0.056 0.118,-0.056c0.06,-0.026 0.119,-0.053 0.179,-0.078l0.098,-0.041c0.068,-0.027 0.136,-0.054 0.205,-0.079l0.08,-0.029c0.063,-0.022 0.145,-0.05 0.145,-0.05c0.027,-0.009 0.055,-0.018 0.083,-0.027c0.021,-0.007 0.022,-0.007 0.044,-0.014c0.077,-0.024 0.154,-0.046 0.231,-0.067l0.107,-0.029c0.049,-0.012 0.098,-0.024 0.148,-0.036c0.021,-0.005 0.022,-0.005 0.045,-0.011c0.066,-0.015 0.152,-0.032 0.152,-0.032l0.042,-0.009c0.095,-0.018 0.189,-0.035 0.284,-0.05l0.134,-0.02c0.103,-0.014 0.207,-0.026 0.311,-0.035c0,0 0.238,-0.021 0.432,-0.027c0.062,-0.002 0.124,-0.003 0.186,-0.004l0.041,0l35.049,0c0,0 -0.102,-0.197 -0.19,-0.341c-0.05,-0.083 -0.104,-0.164 -0.159,-0.244c0,0 -0.11,-0.153 -0.174,-0.234c-0.037,-0.046 -0.074,-0.091 -0.112,-0.136c0,0 -0.086,-0.1 -0.165,-0.184c-0.053,-0.057 -0.107,-0.112 -0.163,-0.165c0,0 -0.094,-0.09 -0.172,-0.158c-0.055,-0.048 -0.111,-0.095 -0.168,-0.141c0,0 -0.117,-0.093 -0.22,-0.166l-0.013,-0.009c-0.159,-0.112 -0.324,-0.214 -0.495,-0.307c-0.042,-0.023 -0.053,-0.028 -0.077,-0.04l-0.035,-0.018l-0.015,-0.007c-0.075,-0.039 -0.153,-0.075 -0.231,-0.109c-0.042,-0.019 -0.062,-0.027 -0.091,-0.039c-0.102,-0.042 -0.205,-0.08 -0.308,-0.115c0,0 -0.102,-0.033 -0.171,-0.053c0,0 -0.155,-0.044 -0.259,-0.069c-0.068,-0.016 -0.162,-0.035 -0.162,-0.035c-0.064,-0.012 -0.129,-0.024 -0.194,-0.034l-0.09,-0.013c-0.209,-0.028 -0.42,-0.044 -0.629,-0.045l-0.036,0Zm-0.614,-2.293c0,0 -0.091,-0.174 -0.179,-0.318c-0.051,-0.083 -0.104,-0.165 -0.16,-0.245c0,0 -0.11,-0.153 -0.174,-0.234c-0.036,-0.046 -0.074,-0.091 -0.111,-0.136c0,0 -0.086,-0.1 -0.166,-0.184c-0.052,-0.056 -0.107,-0.111 -0.162,-0.165c0,0 -0.094,-0.089 -0.172,-0.158c-0.055,-0.048 -0.111,-0.095 -0.169,-0.141c0,0 -0.117,-0.093 -0.219,-0.165l-0.014,-0.01c-0.158,-0.112 -0.324,-0.214 -0.495,-0.307c-0.042,-0.022 -0.052,-0.028 -0.076,-0.04c-0.092,-0.047 -0.186,-0.092 -0.281,-0.134c-0.042,-0.018 -0.062,-0.026 -0.092,-0.038c-0.101,-0.042 -0.205,-0.081 -0.308,-0.115c0,0 -0.102,-0.034 -0.171,-0.054c0,0 -0.155,-0.044 -0.259,-0.068c-0.067,-0.016 -0.161,-0.035 -0.161,-0.035c-0.065,-0.013 -0.13,-0.024 -0.195,-0.035l-0.09,-0.013c-0.209,-0.028 -0.419,-0.043 -0.629,-0.044l-0.036,0l-35.647,0c-0.228,0.001 -0.457,0.015 -0.682,0.047c0,0 -0.092,0.013 -0.181,0.028l-0.088,0.017c-0.044,0.009 -0.089,0.018 -0.133,0.028c-0.043,0.01 -0.052,0.012 -0.073,0.017c-0.067,0.017 -0.123,0.032 -0.189,0.051c0,0 -0.081,0.024 -0.143,0.043c0,0 -0.156,0.053 -0.25,0.089c-0.09,0.034 -0.177,0.071 -0.26,0.108c0,0 -0.14,0.064 -0.247,0.121c-0.212,0.111 -0.416,0.237 -0.609,0.378l-0.013,0.01c-0.113,0.083 -0.223,0.171 -0.329,0.264c0,0 -0.104,0.091 -0.19,0.176c-0.439,0.43 -0.803,0.951 -1.053,1.516l-0.046,0.108c-0.079,0.193 -0.146,0.39 -0.199,0.591l-0.004,0.014c-0.028,0.107 -0.053,0.215 -0.074,0.323c0,0 -0.039,0.216 -0.058,0.39c0,0 -0.007,0.069 -0.011,0.121c-0.005,0.056 -0.006,0.075 -0.008,0.109c-0.005,0.089 -0.008,0.177 -0.009,0.266l0,0.014l0,65.935c0.002,0.484 0.075,0.968 0.223,1.44c0,0 0.056,0.176 0.113,0.32c0.249,0.631 0.64,1.214 1.115,1.681c0.125,0.123 0.257,0.239 0.393,0.347c0,0 0.032,0.025 0.058,0.045c0.03,0.023 0.034,0.026 0.045,0.034c0.024,0.018 0.047,0.035 0.071,0.052c0.04,0.029 0.081,0.057 0.121,0.085c0,0 0.119,0.079 0.22,0.139c0.098,0.059 0.199,0.115 0.303,0.166l0,-65.317c0.002,-0.426 0.04,-0.846 0.119,-1.278c0,0 0.036,-0.192 0.074,-0.35c0.038,-0.163 0.083,-0.325 0.133,-0.485c0,0 0.022,-0.07 0.041,-0.125c0.091,-0.274 0.2,-0.542 0.326,-0.805l0.009,-0.019c0.025,-0.052 0.051,-0.104 0.077,-0.155l0.02,-0.039c0,0 0.039,-0.076 0.071,-0.133c0.041,-0.075 0.084,-0.15 0.128,-0.224l0.022,-0.037c0,0 0.037,-0.062 0.067,-0.11c0.042,-0.066 0.085,-0.132 0.129,-0.197l0.073,-0.106c0.024,-0.034 0.05,-0.07 0.05,-0.07c0.075,-0.104 0.152,-0.205 0.232,-0.305l0.028,-0.034l0.027,-0.034c0,0 0.046,-0.055 0.082,-0.098c0.175,-0.203 0.359,-0.396 0.56,-0.583l0.032,-0.03c0,0 0.063,-0.057 0.111,-0.1c0.096,-0.084 0.194,-0.166 0.294,-0.245c0,0 0.045,-0.036 0.083,-0.065c0.019,-0.014 0.019,-0.014 0.037,-0.028c0.051,-0.038 0.119,-0.088 0.119,-0.088l0.035,-0.026c0.053,-0.037 0.123,-0.086 0.123,-0.086c0.148,-0.1 0.298,-0.195 0.453,-0.285c0,0 0.084,-0.049 0.15,-0.084c0.049,-0.027 0.084,-0.046 0.153,-0.082c0.036,-0.018 0.075,-0.038 0.075,-0.038l0.039,-0.02c0.037,-0.018 0.077,-0.037 0.077,-0.037c0.052,-0.025 0.119,-0.055 0.119,-0.055c0.059,-0.027 0.118,-0.053 0.178,-0.079l0.099,-0.04c0.068,-0.028 0.136,-0.054 0.205,-0.08l0.08,-0.029c0.062,-0.022 0.144,-0.05 0.144,-0.05c0.028,-0.009 0.055,-0.018 0.083,-0.026c0.022,-0.007 0.022,-0.007 0.044,-0.014c0.077,-0.024 0.154,-0.047 0.231,-0.068l0.107,-0.028c0.049,-0.013 0.099,-0.025 0.148,-0.037c0.022,-0.005 0.023,-0.005 0.045,-0.01c0.066,-0.015 0.152,-0.033 0.152,-0.033l0.043,-0.009c0.094,-0.018 0.188,-0.035 0.283,-0.05l0.134,-0.019c0.104,-0.014 0.207,-0.026 0.312,-0.036c0,0 0.238,-0.02 0.431,-0.027c0.062,-0.002 0.124,-0.003 0.186,-0.003l0.041,0l35.05,0l-0.011,-0.023Z"></path></svg>