<svg height='100px' width='100px'  fill="#000000" xmlns="http://www.w3.org/2000/svg" xmlns:xlink="http://www.w3.org/1999/xlink" version="1.1" x="0px" y="0px" viewBox="0 0 60 60" style="enable-background:new 0 0 60 60;" xml:space="preserve"><path d="M50.1201172,13.9376221c-13.3505859-2.2851563-26.8886719-2.2832031-40.2412109,0  C7.0517578,14.4210205,5,16.850708,5,19.7149658v20.5712891c0,2.8642578,2.0517578,5.2939453,4.8789063,5.7773438  c6.6757813,1.1416016,13.3984375,1.7119141,20.1201172,1.7119141c6.7226563,0,13.4453125-0.5703125,20.1210938-1.7119141  C52.9472656,45.5802002,55,43.1505127,55,40.2862549V19.7149658C55,16.850708,52.9472656,14.4210205,50.1201172,13.9376221z   M53,40.2862549c0,1.8867188-1.3535156,3.4873047-3.2177734,3.8066406c-13.1269531,2.2451172-26.4384766,2.2451172-39.5654297,0  C8.3525391,43.7735596,7,42.1729736,7,40.2862549V19.7149658c0-1.8867188,1.3525391-3.4873047,3.2167969-3.8066406  c6.5634766-1.1220703,13.1728516-1.6835938,19.7822266-1.6835938c6.6103516,0,13.2197266,0.5615234,19.7832031,1.6835938  C51.6464844,16.2276611,53,17.8282471,53,19.7149658V40.2862549z"></path><path d="M40.0117188,29.1505127l-14.9697266-9.2792969c-0.3076172-0.1923828-0.6962891-0.2001953-1.0136719-0.0244141  c-0.3173828,0.1767578-0.5136719,0.5107422-0.5136719,0.8740234v18.5595703c0,0.3632813,0.1962891,0.6972656,0.5136719,0.8740234  c0.1513672,0.0839844,0.3193359,0.1259766,0.4863281,0.1259766c0.1826172,0,0.3662109-0.0498047,0.5273438-0.1503906  l14.9697266-9.2802734c0.2939453-0.1816406,0.4726563-0.5039063,0.4726563-0.8496094S40.3056641,29.3321533,40.0117188,29.1505127z   M25.5146484,37.4835205V22.5177002l12.0712891,7.4824219L25.5146484,37.4835205z"></path></svg>