<svg height='100px' width='100px'  fill="#000000" xmlns="http://www.w3.org/2000/svg" xmlns:xlink="http://www.w3.org/1999/xlink" xml:space="preserve" version="1.1" style="shape-rendering:geometricPrecision;text-rendering:geometricPrecision;image-rendering:optimizeQuality;" viewBox="0 0 846.66 846.66" x="0px" y="0px" fill-rule="evenodd" clip-rule="evenodd"><defs><style type="text/css">
   
    .fil0 {fill:#000000;fill-rule:nonzero}
   
  </style></defs><g><path class="fil0" d="M163.32 294.98l88.78 0 0 -26.94 -88.78 0 0 26.94zm129.43 0l53.01 0 0 -51.32c0,-32.4 26.64,-59.04 59.04,-59.04l266.49 0c32.4,0 59.04,26.64 59.04,59.04l0 52.64c56.32,8.58 98.45,57.46 98.45,114.58l0 311.19c0,63.79 -52.11,115.9 -115.9,115.9l-579.1 0c-63.79,0 -115.9,-52.11 -115.9,-115.9l0 -311.19c0,-59.52 45.64,-109.68 104.78,-115.37l0 -47.8c0,-11.22 9.11,-20.33 20.33,-20.33l23.01 0 -68.26 -191.77c-8.88,-25.17 29.4,-38.67 38.27,-13.5l73.07 205.27 63.34 0c11.23,0 20.33,9.11 20.33,20.33l0 47.27zm233.56 56.05c35.35,0 64.01,28.66 64.01,64.01 0,35.3 -28.75,64.01 -64.01,64.01 -35.25,0 -64.01,-28.76 -64.01,-64.01 0,-35.31 28.72,-64.01 64.01,-64.01zm0 40.66c-12.93,0 -23.36,10.39 -23.36,23.35 0,12.99 10.37,23.35 23.36,23.35 12.95,0 23.35,-10.4 23.35,-23.35 0,-12.9 -10.45,-23.35 -23.35,-23.35zm155.31 -40.66c35.36,0 64.01,28.66 64.01,64.01 0,35.3 -28.74,64.01 -64.01,64.01 -35.25,0 -64.01,-28.76 -64.01,-64.01 0,-35.31 28.73,-64.01 64.01,-64.01zm0 40.66c-12.92,0 -23.35,10.39 -23.35,23.35 0,12.99 10.37,23.35 23.35,23.35 12.96,0 23.36,-10.4 23.36,-23.35 0,-12.9 -10.45,-23.35 -23.36,-23.35zm-185.23 327.27c-26.74,0 -26.74,-40.66 0,-40.66l223.48 0c26.74,0 26.74,40.66 0,40.66l-223.48 0zm0 -83.9c-26.74,0 -26.74,-40.66 0,-40.66l47.82 0c26.74,0 26.74,40.66 0,40.66l-47.82 0zm103.29 0c-26.74,0 -26.74,-40.66 0,-40.66l120.19 0c26.74,0 26.74,40.66 0,40.66l-120.19 0zm-103.29 -83.9c-11.23,0 -20.33,-9.1 -20.33,-20.33 0,-11.22 9.1,-20.33 20.33,-20.33l223.48 0c26.74,0 26.74,40.66 0,40.66l-223.48 0zm-233.8 -150.21c91.64,0 165.94,74.3 165.94,165.94 0,91.64 -74.3,165.94 -165.94,165.94 -91.64,0 -165.94,-74.3 -165.94,-165.94 0,-91.64 74.3,-165.94 165.94,-165.94zm0 40.66c-69.19,0 -125.28,56.09 -125.28,125.28 0,69.19 56.09,125.28 125.28,125.28 69.19,0 125.28,-56.09 125.28,-125.28 0,-69.19 -56.09,-125.28 -125.28,-125.28zm123.83 -146.63l303.25 0 0 -51.32c0,-10.18 -8.2,-18.38 -18.38,-18.38l-266.49 0c-10.18,0 -18.38,8.2 -18.38,18.38l0 51.32zm323.58 40.66c-192.07,0 -384.15,0 -576.22,0 -41.34,0 -75.24,33.9 -75.24,75.24l0 311.19c0,41.34 33.9,75.25 75.24,75.25l579.1 0c41.34,0 75.25,-33.91 75.25,-75.25l0 -311.19c0,-43.76 -35.03,-75.24 -78.13,-75.24z"></path></g></svg>