<svg height='100px' width='100px'  fill="#000000" xmlns="http://www.w3.org/2000/svg" xmlns:xlink="http://www.w3.org/1999/xlink" viewBox="0 0 22 22" version="1.1" x="0px" y="0px"><title>remove-book</title><desc>Created with Sketch.</desc><g stroke="none" stroke-width="1" fill="none" fill-rule="evenodd" fill-opacity="1.0"><path d="M12.4968127,0 C13.7516063,0 14.7689605,1.01735416 14.7689605,2.27214776 L13.6328866,2.27214776 C13.6328866,1.64503498 13.1233575,1.13607388 12.4968127,1.13607388 L2.27214776,1.13607388 C1.64503498,1.13607388 1.13607388,1.64503498 1.13607388,2.27214776 L1.13607388,12.4968127 C1.13607388,13.1239255 1.64503498,13.6328866 2.27214776,13.6328866 L2.27214776,14.7689605 C1.01735416,14.7689605 0,13.7516063 0,12.4968127 L0,2.27214776 C0,1.01735416 1.01735416,0 2.27214776,0 L12.4968127,0 Z M15.5683248,3.11368397 C16.8581075,3.11368397 17.9036828,4.15368797 17.9036828,5.44904198 L17.9036828,10.8978939 L17.9036828,14.0437302 C17.9036828,14.3243231 17.7405082,14.391236 17.5455179,14.1993792 L15.5221705,12.208546 C15.3243615,12.0139157 15.005129,12.0259846 14.8238963,12.2197325 L12.2101133,15.0140136 C12.0222761,15.2148221 12.0284873,15.528062 12.2288661,15.718287 L14.1720515,17.5630055 C14.3702456,17.7511565 14.3145316,17.903683 14.0257578,17.903683 L10.8978939,17.9036828 L5.44904198,17.9036828 C4.15925937,17.9036828 3.11368397,16.8636788 3.11368397,15.5683248 L3.11368397,5.44904198 C3.11368397,4.15925937 4.15368797,3.11368397 5.44904198,3.11368397 L7.00578894,3.11368397 L7.00578894,8.75070359 C7.00578894,9.18380106 7.24690741,9.28710592 7.54741488,8.97828368 L9.34105192,7.13501828 L11.134689,8.97828368 C11.4338207,9.28569214 11.6763149,9.18764267 11.6763149,8.75070359 L11.6763149,3.11368397 L15.5683248,3.11368397 Z M21.4826917,15.4283797 L19.0059625,17.905109 L21.4826917,20.3818382 C21.6347935,20.5339399 21.6402857,20.7750534 21.4803045,20.9350346 L20.9350346,21.4803045 C20.7816144,21.6337247 20.5311947,21.6320483 20.3818382,21.4826917 L17.905109,19.0059625 L15.4283797,21.4826917 C15.276278,21.6347935 15.0351645,21.6402857 14.8751833,21.4803045 L14.3299134,20.9350346 C14.1764932,20.7816144 14.1781697,20.5311947 14.3275262,20.3818382 L16.8042554,17.905109 L14.411915,15.5127686 C14.2160382,15.3168917 14.2080684,14.9970283 14.4004385,14.8046582 L14.8046582,14.4004385 C14.9999062,14.2051906 15.3140601,14.2132066 15.5127686,14.411915 L17.905109,16.8042554 L20.3818382,14.3275262 C20.5339399,14.1754244 20.7750534,14.1699322 20.9350346,14.3299134 L21.4803045,14.8751833 C21.6337247,15.0286035 21.6320483,15.2790232 21.4826917,15.4283797 Z" fill="#000000"></path></g></svg>