<svg height='100px' width='100px'  fill="#000000" xmlns="http://www.w3.org/2000/svg" xmlns:xlink="http://www.w3.org/1999/xlink" version="1.1" x="0px" y="0px" viewBox="256 346 100 100" enable-background="new 256 346 100 100" xml:space="preserve"><g><rect x="-380.1" y="175.7" width="22.6" height="13.5"></rect><rect x="-322.6" y="175.7" width="22.6" height="13.5"></rect><path d="M-258.9,250.3V105.9h-161v144.4h-45.3v8l0,0v237.5l53.9,97.9v91.2h71.6h1.2h71.6v-91.2l53.9-97.9V250.3H-258.9z    M-411.9,114.5h144.4V251h-144.4V114.5z M-221,493.9l-53.9,97.9v85.1h-63.6h-1.2h-63.6v-85.1l-53.9-97.9v-235h36.7h161h38.6V493.9z   "></path><path d="M-314.6,394.2h10.4c-0.6,12.9-4.3,22-11,26.9c-7.3,6.1-17.7,5.5-22.6,4.9v-85.1h20.2l-11-18.4l-11-19l-11,19l-11,18.4h15.9   v126.7c-8.6-0.6-14.7-3.7-19.6-9.2c-9.8-11-11.6-30-11.6-43.5c7.3-1.2,13.5-8,13.5-15.9c0-9.2-7.3-16.5-16.5-16.5   s-16.5,7.3-16.5,16.5c0,7.3,4.9,13.5,11,15.3c0,14.7,1.8,36.1,13.5,49.6c6.7,7.3,15.3,11.6,26.3,12.2v23.3   c-8,2.4-14.1,9.8-14.1,18.4c0,11,8.6,19.6,19.6,19.6s19.6-8.6,19.6-19.6c0-9.8-7.3-17.7-17.1-19v-64.9c1.8,0,3.7,0.6,5.5,0.6   c6.7,0,14.7-1.2,22-6.7c8.6-6.7,13.5-17.7,14.1-33.7h11v-30h-30v30H-314.6z"></path></g><g><path fill="#000000" d="M311.4,440.7l-0.3-0.2L257.9,409l4.1-8.1l50.9,30.2h41v9.4L311.4,440.7z M261,408.1l51,30.2l39.5-0.1v-4.7   h-39.3L263,404.2L261,408.1z"></path></g><g><path fill="#000000" d="M353.9,432.6h-2.4c0-10.3-8.4-18.7-18.7-18.7s-18.7,8.4-18.7,18.7h-2.4c0-11.6,9.4-21.1,21.1-21.1   S353.9,421,353.9,432.6z"></path></g><g><polygon fill="#000000" points="328.5,413.5 312.1,375.6 283.9,362.4 260.4,409.4 258.3,408.4 282.8,359.3 313.9,373.8    330.6,412.6  "></polygon></g><g><path fill="#000000" d="M279.7,412.1l-2.1-1c2-4.1,2.3-8.8,0.9-13.1c-1.5-4.4-4.6-7.9-8.7-9.9l1-2.1c4.7,2.3,8.2,6.3,9.9,11.3   C282.4,402.1,282,407.4,279.7,412.1z"></path></g><g><path fill="#000000" d="M315.2,376.2l-0.6-0.1l-33.5-15.4c-1.5-1.6-1.9-3.5-1.2-5.1c0.8-1.8,3-2.6,4.8-1.8l33.1,15.1   c0.9,0.4,1.6,1.1,1.9,2c0.3,0.9,0.3,1.9-0.1,2.8C318.9,375.3,317.2,376.2,315.2,376.2z M282.7,359l32.7,14.9c0.8,0,1.8-0.3,2.1-1.1   c0.1-0.3,0.2-0.7,0-1c-0.1-0.3-0.4-0.6-0.7-0.7L283.7,356c-0.6-0.3-1.4,0-1.7,0.6C281.7,357.4,282.1,358.3,282.7,359z"></path></g><g><path fill="#000000" d="M317.1,371l-0.6-0.1L283,355.5c-1.5-1.6-1.9-3.5-1.2-5.1c0.8-1.8,3-2.6,4.8-1.8l33.1,15.1   c0.9,0.4,1.6,1.1,1.9,2c0.3,0.9,0.3,1.9-0.1,2.8C320.9,370.1,319.2,371,317.1,371z M284.6,353.8l32.7,14.9c0.8,0,1.8-0.3,2.1-1.1   c0.1-0.3,0.2-0.7,0-1s-0.4-0.6-0.7-0.7l-33.1-15.1c-0.6-0.3-1.4,0-1.7,0.6C283.6,352.2,284.1,353.1,284.6,353.8z"></path></g><g><path fill="#000000" d="M306.5,381.8c-1.8,0-3.3-1.5-3.3-3.3c0-1.8,1.5-3.3,3.3-3.3s3.3,1.5,3.3,3.3   C309.9,380.3,308.4,381.8,306.5,381.8z M306.5,377.4c-0.5,0-1,0.4-1,1s0.4,1,1,1s1-0.4,1-1S307.1,377.4,306.5,377.4z"></path></g><g><path fill="#000000" d="M310.8,391.7c-1.8,0-3.3-1.5-3.3-3.3c0-1.8,1.5-3.3,3.3-3.3c1.8,0,3.3,1.5,3.3,3.3   C314.2,390.2,312.7,391.7,310.8,391.7z M310.8,387.4c-0.5,0-1,0.4-1,1c0,0.5,0.4,1,1,1s1-0.4,1-1   C311.8,387.8,311.4,387.4,310.8,387.4z"></path></g><g><path fill="#000000" d="M315.2,401.6c-1.8,0-3.3-1.5-3.3-3.3c0-1.8,1.5-3.3,3.3-3.3c1.8,0,3.3,1.5,3.3,3.3   C318.5,400.1,317,401.6,315.2,401.6z M315.2,397.3c-0.5,0-1,0.4-1,1c0,0.5,0.4,1,1,1s1-0.4,1-1   C316.2,397.7,315.7,397.3,315.2,397.3z"></path></g><g><path fill="#000000" d="M319.5,411.6c-1.8,0-3.3-1.5-3.3-3.3c0-1.8,1.5-3.3,3.3-3.3c1.8,0,3.3,1.5,3.3,3.3   C322.8,410.1,321.3,411.6,319.5,411.6z M319.5,407.2c-0.5,0-1,0.4-1,1c0,0.5,0.4,1,1,1s1-0.4,1-1   C320.5,407.7,320,407.2,319.5,407.2z"></path></g><g><rect x="308.7" y="377.2" fill="#000000" width="6.1" height="2.4"></rect></g><g><rect x="312.3" y="387.2" fill="#000000" width="6.4" height="2.4"></rect></g><g><rect x="316.7" y="397.1" fill="#000000" width="6.4" height="2.4"></rect></g><g><rect x="321.7" y="407" fill="#000000" width="5.6" height="2.4"></rect></g><g><path fill="#000000" stroke="#000000" stroke-miterlimit="10" d="M318.8,418.7"></path></g><g><rect x="277.1" y="392.1" transform="matrix(0.3812 0.9245 -0.9245 0.3812 553.1141 -39.7169)" fill="#000000" width="58.3" height="2.4"></rect></g></svg>