<svg height='100px' width='100px'  fill="#000000" xmlns="http://www.w3.org/2000/svg" xmlns:xlink="http://www.w3.org/1999/xlink" version="1.1" x="0px" y="0px" viewBox="0 0 32 32" style="enable-background:new 0 0 32 32;" xml:space="preserve"><g><path d="M15.599,18.438c-0.16,0-0.323-0.008-0.49-0.029c-1.107-0.143-1.798-0.789-2.408-1.359c-0.571-0.533-0.897-0.761-1.274-0.75   c-0.253,0.001-0.555,0.085-0.875,0.174c-0.587,0.163-1.316,0.366-2.131,0.154c-2.284-0.591-2.52-2.956-2.676-4.521   c-0.023-0.238-0.046-0.467-0.075-0.678c-0.021-0.148-0.043-0.319-1.186-0.243c-0.07,0.004-0.15,0.023-0.234,0.04   c-0.414,0.081-1.104,0.215-1.689-0.212c-0.776-0.567-0.774-1.709-0.704-2.339C1.918,8.125,2.419,7.729,2.961,7.79   C3.51,7.851,3.906,8.345,3.845,8.894C3.83,9.031,3.827,9.16,3.832,9.269c0.012-0.002,0.024-0.005,0.035-0.007   C4.042,9.227,4.21,9.198,4.356,9.188c0.743-0.048,3.002-0.193,3.296,1.97c0.032,0.232,0.057,0.485,0.083,0.749   c0.148,1.488,0.32,2.56,1.187,2.784c0.293,0.075,0.665-0.026,1.096-0.146c0.412-0.114,0.878-0.243,1.396-0.246   c0.006,0,0.013,0,0.019,0c1.255,0,2.058,0.751,2.59,1.249c0.543,0.508,0.859,0.789,1.269,0.866   c-0.052-0.124-0.089-0.254-0.11-0.389c-0.055-0.355-0.032-0.986,0.606-1.571c-0.063-0.02-0.127-0.043-0.192-0.07   c-0.832-0.354-1.313-1.017-1.321-1.818c-0.009-0.935,0.677-1.9,1.668-2.348c1.957-0.882,3.009,0.41,3.705,1.265l0.206,0.251   c0.241,0.289,0.541,0.56,0.783,0.735c-0.007-0.034-0.014-0.066-0.021-0.096c-0.076-0.354-0.171-0.796-0.058-1.296   c0.193-0.851,0.8-1.444,1.368-1.912c0.26-0.214,0.53-0.417,0.802-0.62c0.688-0.514,1.339-1,1.721-1.649   c0.223-0.378,0.342-0.781,0.335-1.135c-0.002-0.133-0.058-0.281-0.146-0.51c-0.083-0.214-0.178-0.456-0.235-0.749   c-0.107-0.542,0.244-1.068,0.786-1.175c0.539-0.109,1.067,0.245,1.175,0.787c0.029,0.146,0.086,0.278,0.138,0.411   c0.122,0.313,0.274,0.703,0.283,1.2c0.017,0.92-0.323,1.697-0.611,2.186c-0.586,0.996-1.468,1.655-2.247,2.237   c-0.246,0.184-0.492,0.367-0.728,0.561c-0.307,0.253-0.629,0.547-0.688,0.811c-0.017,0.069,0.031,0.289,0.062,0.435   c0.082,0.382,0.194,0.906,0.001,1.471c-0.31,0.906-0.945,1.15-1.297,1.215c-1.297,0.237-2.593-1.184-2.959-1.625l-0.221-0.269   c-0.752-0.922-0.832-0.928-1.333-0.704c-0.268,0.121-0.434,0.344-0.479,0.459c0.019,0.007,0.05,0.024,0.094,0.043   c0.072,0.028,0.16,0.038,0.248,0.054c0.422,0.079,1.299,0.242,1.642,1.144c0.312,0.822,0.02,1.5-0.872,2.014l-0.08,0.047   c0.093,0.064,0.215,0.133,0.354,0.192c0.708,0.068,1.282,0.702,1.269,1.418c-0.007,0.311-0.156,0.6-0.405,0.784   c-0.248,0.185-0.566,0.244-0.867,0.158c-0.308-0.086-0.685-0.042-1.122,0.01C16.254,18.399,15.936,18.438,15.599,18.438z"></path><path d="M17.674,31.692c-0.275,0-0.542-0.114-0.733-0.319c-0.226-0.244-0.316-0.584-0.241-0.907l0.23-0.966   c0.259-1.072,0.527-2.18,0.678-3.262c0.197-1.412,0.175-1.843-0.491-2.503c-0.825-0.818-1.2-1.594-1.147-2.37   c0.03-0.447,0.228-1.104,0.998-1.684c0.116-0.088,0.24-0.165,0.366-0.241c0.047-0.028,0.107-0.065,0.156-0.098   c-0.062-0.189-0.255-0.511-0.355-0.679c-0.082-0.137-0.158-0.265-0.219-0.379c-0.066-0.125-0.104-0.258-0.113-0.391   c-0.062-0.312-0.008-0.627,0.162-0.9c0.437-0.703,1.441-0.792,2.006-0.771c0.712,0.015,1.432,0.216,2.077,0.583   c0.254,0.144,0.479,0.298,0.691,0.445c0.562,0.389,0.726,0.487,1.139,0.377c0.188-0.05,0.494-0.184,0.792-0.312   c0.945-0.413,2.122-0.925,3.139-0.503c1.768,0.732,1.58,3.34,1.223,4.417c-0.518,1.563-1.254,2.673-2.25,3.389   c-0.277,0.199-0.546,0.367-0.804,0.527c-0.643,0.399-1.066,0.662-1.375,1.284c-1.156,2.331-2.746,4.778-5.774,5.251   C17.776,31.688,17.725,31.692,17.674,31.692z M19.191,18.244c0.242,0.488,0.421,1.057,0.257,1.656   c-0.195,0.715-0.747,1.049-1.076,1.249c-0.068,0.042-0.138,0.082-0.2,0.129c-0.165,0.125-0.205,0.209-0.206,0.223   c0,0.002-0.01,0.249,0.56,0.814c1.45,1.438,1.254,2.842,1.063,4.2c-0.124,0.884-0.312,1.755-0.512,2.606   c1.12-0.709,1.936-1.971,2.734-3.581c0.562-1.132,1.349-1.621,2.11-2.094c0.222-0.139,0.454-0.282,0.692-0.453   c0.641-0.461,1.138-1.244,1.519-2.394c0.255-0.771,0.129-1.85-0.09-1.94c-0.259-0.083-1.149,0.303-1.575,0.488   c-0.383,0.167-0.744,0.324-1.079,0.413c-1.324,0.351-2.133-0.213-2.785-0.665c-0.168-0.115-0.344-0.238-0.543-0.352   C19.78,18.387,19.489,18.285,19.191,18.244z"></path><path d="M16,32C7.178,32,0,24.822,0,16S7.178,0,16,0s16,7.178,16,16S24.822,32,16,32z M16,2C8.28,2,2,8.28,2,16s6.28,14,14,14   s14-6.28,14-14S23.72,2,16,2z"></path><path d="M17.288,6.01c-0.118,0-0.237-0.004-0.358-0.012c-0.713-0.05-1.352-0.327-1.916-0.572c-0.384-0.167-0.747-0.324-1.071-0.386   c-0.217-0.041-0.877-0.167-1.186-0.806c-0.194-0.407-0.127-0.792-0.099-0.957l0.051-0.27c0.036-0.185,0.078-0.369,0.081-0.557   c0-0.013,0-0.026,0-0.038c-0.373,0.082-0.771-0.054-1.015-0.377c-0.331-0.442-0.241-1.068,0.201-1.4   c0.655-0.491,1.606-0.399,2.213,0.214c0.398,0.402,0.611,0.983,0.601,1.635c-0.004,0.248-0.038,0.478-0.077,0.689   c0.403,0.117,0.753,0.269,1.096,0.417c0.457,0.198,0.888,0.386,1.26,0.412c0.564,0.037,1.211-0.091,1.89-0.23   c0.098-0.02,0.195-0.04,0.295-0.06c-0.15-0.303-0.273-0.7-0.216-1.152c0.09-0.71,0.61-1.316,1.326-1.543   c0.547-0.172,1.181-0.11,1.736,0.173c0.492,0.25,0.688,0.852,0.438,1.345c-0.251,0.492-0.852,0.688-1.345,0.438   c-0.026-0.013-0.052-0.024-0.075-0.032c0.017,0.023,0.036,0.05,0.059,0.079l0.11,0.138c0.21,0.261,0.473,0.586,0.615,1.03   c0.098,0.301,0.047,0.631-0.138,0.889s-0.48,0.413-0.798,0.418c-0.496,0.008-1.036,0.118-1.607,0.235   C18.692,5.869,18.004,6.01,17.288,6.01z"></path></g></svg>